<svg id="Component_4_1" data-name="Component 4 – 1" xmlns="http://www.w3.org/2000/svg" width="50" height="26.353" viewBox="0 0 50 26.353">
  <path id="Vector" d="M16.334,26.2H14.141V17.51h2.192Z" fill="rgba(255,255,255,0.85)"/>
  <g id="Component_2_1" data-name="Component 2 – 1">
    <path id="Vector-2" data-name="Vector" d="M34.011,20a3.834,3.834,0,0,0-1.844-.464,2.32,2.32,0,1,0,0,4.637,3.885,3.885,0,0,0,1.844-.461v2.332a7.038,7.038,0,0,1-2,.309,4.5,4.5,0,1,1,0-9,6.668,6.668,0,0,1,2,.312ZM11.128,20a3.809,3.809,0,0,0-1.842-.464,2.32,2.32,0,1,0,0,4.637,3.859,3.859,0,0,0,1.842-.461v2.332a7,7,0,0,1-2,.309,4.5,4.5,0,1,1,0-9,6.643,6.643,0,0,1,2,.312Zm29.78-.431a2.248,2.248,0,1,0,.875.169A2.246,2.246,0,0,0,40.908,19.568ZM45.5,21.853a4.59,4.59,0,1,1-4.591-4.5A4.461,4.461,0,0,1,45.5,21.853ZM24.648,19.485a7.508,7.508,0,0,0-1.714-.265c-.878,0-1.356.294-1.356.712,0,.529.644.714,1,.828l.6.192a2.613,2.613,0,0,1,2.071,2.485c0,2.183-1.919,2.916-3.6,2.916a13.165,13.165,0,0,1-2.366-.237v-2a8.212,8.212,0,0,0,2.07.324c1.091,0,1.592-.319,1.592-.811,0-.44-.434-.694-.978-.865-.132-.044-.332-.107-.468-.151-1.221-.386-2.239-1.1-2.239-2.542,0-1.625,1.217-2.716,3.237-2.716a9.39,9.39,0,0,1,2.137.276Z" fill="rgba(255,255,255,0.85)"/>
    <path id="Vector-3" data-name="Vector" d="M1.857,7.406a1.087,1.087,0,0,1,.32.767v2.281a1.089,1.089,0,0,1-2.177,0V8.173a1.089,1.089,0,0,1,1.857-.766Z" fill="rgba(255,255,255,0.85)"/>
    <path id="Vector-4" data-name="Vector" d="M8.073,4.764a1.089,1.089,0,0,1,.083.417v5.274a1.089,1.089,0,1,1-2.177,0V5.181a1.089,1.089,0,0,1,2.094-.417Z" fill="rgba(255,255,255,0.85)"/>
    <path id="Vector-5" data-name="Vector" d="M13.815.318a1.088,1.088,0,0,1,.32.767V12.622a1.089,1.089,0,0,1-2.177,0V1.085A1.089,1.089,0,0,1,13.815.318Z" fill="rgba(255,255,255,0.85)"/>
    <path id="Vector-6" data-name="Vector" d="M20.03,4.764a1.088,1.088,0,0,1,.083.417v5.273a1.089,1.089,0,1,1-2.177,0V5.18a1.088,1.088,0,0,1,2.094-.416Z" fill="rgba(255,255,255,0.85)"/>
    <path id="Vector-7" data-name="Vector" d="M25.768,7.407a1.083,1.083,0,0,1,.317.766v2.281a1.085,1.085,0,1,1-2.17,0V8.173a1.086,1.086,0,0,1,1.854-.765Z" fill="rgba(255,255,255,0.85)"/>
    <path id="Vector-8" data-name="Vector" d="M31.739,4.431a1.085,1.085,0,0,1,.327.75v5.274a1.085,1.085,0,0,1-2.17,0V5.181a1.085,1.085,0,0,1,1.843-.75Z" fill="rgba(255,255,255,0.85)"/>
    <path id="Vector-9" data-name="Vector" d="M37.731.318a1.085,1.085,0,0,1,.318.767V12.622a1.086,1.086,0,1,1-2.17,0V1.085A1.085,1.085,0,0,1,37.731.318Z" fill="rgba(255,255,255,0.85)"/>
    <path id="Vector-10" data-name="Vector" d="M43.945,4.763a1.088,1.088,0,0,1,.085.418v5.274a1.092,1.092,0,1,1-2.183,0V5.18a1.092,1.092,0,0,1,2.1-.417Z" fill="rgba(255,255,255,0.85)"/>
    <path id="Vector-11" data-name="Vector" d="M49.682,7.405A1.086,1.086,0,0,1,50,8.173v2.281a1.086,1.086,0,1,1-2.171,0V8.173a1.086,1.086,0,0,1,1.854-.768Z" fill="rgba(255,255,255,0.85)"/>
  </g>
</svg>
