<svg id="Component_3_1" data-name="Component 3 – 1" xmlns="http://www.w3.org/2000/svg" width="48" height="19" viewBox="0 0 48 19">
  <path id="Union" d="M14.449,5.719A5.481,5.481,0,0,1,18.824,4c3.059.016,5.895,2.063,5.829,5.586a6.742,6.742,0,0,1-.082.933c.818-2.2,4.859-2.5,6.066-2.511.71,0,2.84-.008,2.84-.008.011-1.43-.442-2.387-2.922-2.43C28.441,5.531,27.9,6.586,27.77,7H25.18c.66-3.4,5.543-2.984,5.543-2.984,5.087.2,5.212,2.815,5.27,4.047L36,8.195V15l-2.254.012-.1-1.832c-.961,1.16-2.254,1.808-4.524,1.82-2.21.011-5.017-.906-4.695-3.82-.7,2.492-2.937,3.82-5.653,3.82-3.245,0-4.355-1.734-4.355-1.734L14.316,15H12V10H2.441A3.6,3.6,0,0,0,6.07,13.464c2.715.048,3.207-1.78,3.207-1.78l2.508-.008S11.519,15,6.059,15C-.293,15,0,9.7,0,9.7-.027,8.527,0,4,6,4c5.025,0,5.881,3.43,6,5.1V0h2.449Zm.016,3.824s-.063,3.934,3.8,3.887a3.775,3.775,0,0,0,3.867-3.805s.058-4.148-3.875-4.051A3.763,3.763,0,0,0,14.465,9.543ZM6.148,5.551A3.3,3.3,0,0,0,2.523,8.516H9.586S9.586,5.547,6.148,5.551Zm20.8,6.094c.145,1.871,2.6,1.867,2.6,1.867,4.4.054,3.953-3.949,3.956-3.949l-2.78,0S26.793,9.648,26.945,11.645Z" fill="rgba(255,255,255,0.85)"/>
  <path id="Union-2" data-name="Union" d="M34.438,4h2.8l4.106,8.184L45.465,4H48L40.574,19H37.86l2.149-4.465Z" fill="rgba(255,255,255,0.85)"/>
</svg>
