<svg xmlns="http://www.w3.org/2000/svg" width="25" height="25" viewBox="0 0 25 25">
  <path id="Icon" d="M6.937,23.492,5.419,25,0,19.758l3.882-3.827a5.94,5.94,0,0,1,6.128-1.39l.853.3H16.1a1.658,1.658,0,0,1,1.187.5,1.634,1.634,0,0,1,.465,1.193,1.681,1.681,0,0,1-.539,1.138,1.705,1.705,0,0,1-1.182.451h-3.14a.645.645,0,0,0-.454.187.635.635,0,0,0,0,.9.645.645,0,0,0,.454.187h3.15a3.005,3.005,0,0,0,2.068-.809,2.963,2.963,0,0,0,.936-2v-.041l2.914-3.258a1.771,1.771,0,0,1,2.423-.235,1.7,1.7,0,0,1,.2,2.434l-5.817,6.633A4.093,4.093,0,0,1,15.676,23.5ZM18.949,9.071a1.207,1.207,0,0,0-.357-.857,1.225,1.225,0,0,0-.863-.355h-1.8V6.074a1.208,1.208,0,0,0-.376-.821,1.227,1.227,0,0,0-1.686,0,1.208,1.208,0,0,0-.376.821V7.86h-1.8a1.225,1.225,0,0,0-.9.334,1.21,1.21,0,0,0,.415,2.011,1.228,1.228,0,0,0,.484.076h1.8v1.786a1.208,1.208,0,0,0,.376.821,1.227,1.227,0,0,0,1.686,0,1.208,1.208,0,0,0,.376-.821V10.281h1.8a1.225,1.225,0,0,0,.862-.354,1.207,1.207,0,0,0,.358-.855ZM7.248,2.357V3.673H5.925a.9.9,0,0,0-.636.262.888.888,0,0,0,0,1.263.9.9,0,0,0,.636.262H7.251V6.776a.89.89,0,0,0,.263.631.9.9,0,0,0,1.272,0,.89.89,0,0,0,.263-.631V5.454h1.318A.9.9,0,0,0,11,5.193.888.888,0,0,0,11,3.93a.9.9,0,0,0-.636-.262H9.042V2.357a.89.89,0,0,0-.263-.631.9.9,0,0,0-1.272,0,.89.89,0,0,0-.263.631ZM18.592,0a.774.774,0,0,0-.545.224.763.763,0,0,0-.226.541V1.9H16.68a.774.774,0,0,0-.545.224.761.761,0,0,0,0,1.082.774.774,0,0,0,.545.224h1.141V4.561a.763.763,0,0,0,.226.541.775.775,0,0,0,1.09,0,.763.763,0,0,0,.226-.541V3.429H20.5a.774.774,0,0,0,.545-.224.764.764,0,0,0-.25-1.248A.776.776,0,0,0,20.5,1.9H19.363V.765a.763.763,0,0,0-.226-.541A.774.774,0,0,0,18.592,0Z" fill="#fff"/>
</svg>
