<svg id="Component_3_1" data-name="Component 3 – 1" xmlns="http://www.w3.org/2000/svg" width="16.479" height="20.006" viewBox="0 0 16.479 20.006">
  <path id="Icon" d="M16.479,25V4.994H0V25H3.838V23.813A2.66,2.66,0,0,1,6.426,21.1h3.627a2.667,2.667,0,0,1,2.6,2.709V25ZM4.55,17.848a.875.875,0,0,1-.058.315.817.817,0,0,1-.163.264.761.761,0,0,1-.549.233H1.962a.76.76,0,0,1-.548-.233.8.8,0,0,1-.163-.264.874.874,0,0,1-.058-.315v-1.9a.87.87,0,0,1,.058-.315.817.817,0,0,1,.163-.264.762.762,0,0,1,.548-.233H3.78a.751.751,0,0,1,.3.061.767.767,0,0,1,.25.172.813.813,0,0,1,.163.264.873.873,0,0,1,.058.315Zm0-5.61a.876.876,0,0,1-.058.315.812.812,0,0,1-.163.264.763.763,0,0,1-.549.233H1.962a.751.751,0,0,1-.3-.061.762.762,0,0,1-.25-.172.806.806,0,0,1-.163-.264.875.875,0,0,1-.058-.315V10.33a.851.851,0,0,1,.221-.568.8.8,0,0,1,.25-.183.757.757,0,0,1,.3-.061H3.78a.751.751,0,0,1,.3.061.793.793,0,0,1,.25.183.81.81,0,0,1,.163.264.82.82,0,0,1,.058.3Zm2.011-2a.87.87,0,0,1,.058-.315.817.817,0,0,1,.163-.264.763.763,0,0,1,.25-.172.756.756,0,0,1,.3-.061H8.956a.757.757,0,0,1,.3.061.766.766,0,0,1,.25.172.81.81,0,0,1,.163.264.874.874,0,0,1,.058.315v1.7a.851.851,0,0,1-.221.568.79.79,0,0,1-.25.182.756.756,0,0,1-.3.061H7.331a.75.75,0,0,1-.3-.061.8.8,0,0,1-.25-.182.81.81,0,0,1-.163-.264.82.82,0,0,1-.058-.3ZM9.774,17.6a.849.849,0,0,1-.221.568.793.793,0,0,1-.25.183.757.757,0,0,1-.3.061H7.33a.756.756,0,0,1-.3-.061.793.793,0,0,1-.25-.183.812.812,0,0,1-.163-.264.821.821,0,0,1-.058-.3V15.849a.87.87,0,0,1,.058-.315.812.812,0,0,1,.163-.264.763.763,0,0,1,.549-.233H9a.751.751,0,0,1,.3.061.762.762,0,0,1,.25.172.806.806,0,0,1,.163.264.876.876,0,0,1,.058.315Zm2.155-7.274a.851.851,0,0,1,.221-.568.8.8,0,0,1,.25-.183.757.757,0,0,1,.3-.061h1.818a.751.751,0,0,1,.3.061.793.793,0,0,1,.25.183.81.81,0,0,1,.163.264.82.82,0,0,1,.058.3v1.907a.876.876,0,0,1-.058.315.812.812,0,0,1-.163.264.763.763,0,0,1-.549.233H12.7a.751.751,0,0,1-.3-.061.762.762,0,0,1-.25-.172.806.806,0,0,1-.163-.264.875.875,0,0,1-.058-.315ZM12.4,18.6a.762.762,0,0,1-.25-.172.8.8,0,0,1-.163-.264.874.874,0,0,1-.058-.315v-1.9a.87.87,0,0,1,.058-.315.817.817,0,0,1,.163-.264.762.762,0,0,1,.548-.233h1.818a.751.751,0,0,1,.3.061.766.766,0,0,1,.25.172.813.813,0,0,1,.163.264.873.873,0,0,1,.058.315v1.9a.875.875,0,0,1-.058.315.817.817,0,0,1-.163.264.761.761,0,0,1-.549.233H12.7A.754.754,0,0,1,12.4,18.6Z" transform="translate(0 -4.994)" fill="#fff"/>
  <path id="Icon-2" data-name="Icon" d="M6.424,22.724a1.071,1.071,0,0,0-1.05,1.091V25h5.732V23.815a1.071,1.071,0,0,0-1.053-1.091Z" transform="translate(0 -4.994)" fill="#fff"/>
</svg>
